<svg xmlns="http://www.w3.org/2000/svg" xmlns:xlink="http://www.w3.org/1999/xlink" width="1920" zoomAndPan="magnify" viewBox="0 0 1440 809.999993" height="1080" preserveAspectRatio="xMidYMid meet" version="1.2"><g id="f08d0f6bb1"><path style="fill:none;stroke-width:1;stroke-linecap:butt;stroke-linejoin:miter;stroke:#000000;stroke-opacity:1;stroke-miterlimit:4;" d="M 0.00219434 0.500261 L 95.335552 0.500261 " transform="matrix(0.747418,0,0,0.747418,453.428047,570.458127)"/><path style="fill:none;stroke-width:1;stroke-linecap:butt;stroke-linejoin:miter;stroke:#000000;stroke-opacity:1;stroke-miterlimit:4;" d="M 0.00192623 0.500589 L 52.309281 0.500589 " transform="matrix(0,0.745742,-0.745742,0,525.299092,570.838407)"/><path style="fill:none;stroke-width:1;stroke-linecap:butt;stroke-linejoin:miter;stroke:#000000;stroke-opacity:1;stroke-miterlimit:4;" d="M 0.000263874 0.501362 L 26.391811 0.501362 " transform="matrix(-0.52248,0.52248,-0.52248,-0.52248,525.265996,610.066501)"/><path style="fill:none;stroke-width:1;stroke-linecap:butt;stroke-linejoin:miter;stroke:#000000;stroke-opacity:1;stroke-miterlimit:4;" d="M 0.00235269 0.500514 L 57.752356 0.500514 " transform="matrix(-0.75,0,0,-0.75,511.001765,624.172261)"/><path style="fill:none;stroke-width:1;stroke-linecap:butt;stroke-linejoin:miter;stroke:#000000;stroke-opacity:1;stroke-miterlimit:4;" d="M 0.0000805631 0.502716 L 26.286162 0.499681 " transform="matrix(-0.522584,-0.526717,0.526717,-0.522584,467.418847,624.059629)"/><path style="fill:none;stroke-width:1;stroke-linecap:butt;stroke-linejoin:miter;stroke:#000000;stroke-opacity:1;stroke-miterlimit:4;" d="M 0.00192623 0.498781 L 52.309281 0.498781 " transform="matrix(0,0.745742,-0.745742,0,454.172743,570.838407)"/></g></svg>